<?xml version="1.0" encoding="utf-8"?>
<!-- Svg Vector Icons : http://www.onlinewebfonts.com/icon -->
<!DOCTYPE svg PUBLIC "-//W3C//DTD SVG 1.1//EN" "http://www.w3.org/Graphics/SVG/1.1/DTD/svg11.dtd">
<svg version="1.1" xmlns="http://www.w3.org/2000/svg" xmlns:xlink="http://www.w3.org/1999/xlink" x="0px" y="0px" viewBox="0 0 1000 1000" enable-background="new 0 0 1000 1000" xml:space="preserve">
<metadata> Svg Vector Icons : http://www.onlinewebfonts.com/icon </metadata>
<g><g transform="translate(0.000000,511.000000) scale(0.100000,-0.100000)"><path d="M2591,4989.8c-24-8.7-71.9-47.9-102.4-87.1l-58.8-69.7v-389.9v-389.9h294h294v185.1v185.1h2232.5H7483v-479.2c0-507.5,10.9-566.3,102.4-607.7c32.7-15.2,228.7-24,540.2-24h490.1V372.2v-2940.4h-185.1h-185.1v-294v-294h355c398.6,0,466.1,17.4,553.2,150.3l50.1,74V311.3c0,2774.9-4.4,3251.9-30.5,3302c-34.8,63.2-1274.2,1304.7-1363.5,1363.5c-47.9,32.7-278.8,34.8-2613.7,32.7C3789,5009.4,2617.2,5000.7,2591,4989.8z"/><path d="M955.3,3345.3c-39.2-17.4-91.5-63.2-115.4-102.4c-43.6-71.9-43.6-100.2-43.6-3948.9c0-3807.3,0-3879.2,43.6-3946.7c89.3-148.1-159-137.2,3336.8-137.2c3023.2,0,3169.1,2.2,3238.8,39.2c41.4,21.8,93.7,74.1,115.4,115.4c37,69.7,39.2,217.8,39.2,3319.4c0,3112.5-2.2,3247.5-39.2,3310.7c-58.8,93.6-1322.1,1324.3-1394,1354.8c-43.6,19.6-662.1,26.1-2585.4,26.1C1430.1,3375.8,1014.1,3371.5,955.3,3345.3z M5849.5,2289v-503.1l54.5-52.3l52.3-54.4h514h511.9v-2940.4v-2940.4H4183.2H1384.4v3495.8v3495.8h2232.5h2232.5V2289z"/><path d="M2325.3,825.3c-32.7-32.7-34.9-130.7,0-165.5c19.6-19.6,222.2-26.1,779.8-26.1c731.8,0,755.8,2.2,795,43.6c32.7,34.9,37,56.6,19.6,104.6l-19.6,58.8l-775.4,6.5C2543.1,851.4,2344.9,844.9,2325.3,825.3z"/><path d="M2484.3-320.4c-69.7-4.4-141.6-17.4-156.8-30.5c-34.8-28.3-37-130.7-2.2-165.5c19.6-19.6,457.4-26.1,1836.1-26.1c1727.2,0,1814.3,2.2,1847,39.2c43.6,47.9,45.8,91.5,8.7,143.8c-26.1,34.8-130.7,39.2-1714.2,41.4C3375.1-316,2556.2-316,2484.3-320.4z"/><path d="M2338.4-1503.1c-21.8-13.1-39.2-47.9-39.2-80.6c0-132.9-124.2-124.2,1840.5-130.7c1219.7-2.2,1812.2,2.2,1840.5,17.4c63.2,32.7,78.4,124.2,32.7,174.2c-39.2,43.6-78.4,43.6-1838.3,43.6C2994-1481.3,2362.3-1487.8,2338.4-1503.1z"/><path d="M2338.4-2657.5c-54.5-30.5-52.3-163.4,2.2-193.9c28.3-15.3,640.4-21.8,1829.6-21.8c1759.9,0,1788.2,0,1831.8,43.6c24,23.9,43.6,58.8,43.6,76.2s-19.6,52.3-43.6,76.2c-43.6,43.6-71.9,43.6-1833.9,43.6C2989.6-2635.7,2362.3-2642.2,2338.4-2657.5z"/></g></g>
</svg>